<svg xmlns="http://www.w3.org/2000/svg" viewBox="0 0 1100 620"
     width="1100" height="620"
     style="background:#16140e; font-family: Arial, sans-serif;">
<defs>

  <linearGradient id="rodgrad" x1="0" y1="0" x2="1" y2="0">
    <stop offset="0%"  stop-color="#C1550F"/>
    <stop offset="40%" stop-color="#F59B3A"/>
    <stop offset="100%" stop-color="#C1550F"/>
  </linearGradient>
  <filter id="glow">
    <feGaussianBlur stdDeviation="2.5" result="blur"/>
    <feMerge><feMergeNode in="blur"/><feMergeNode in="SourceGraphic"/></feMerge>
  </filter>
  <clipPath id="cp1"><rect x="10" y="80" width="260" height="500"/></clipPath>
  <clipPath id="cp2"><rect x="282" y="80" width="260" height="500"/></clipPath>
  <clipPath id="cp3"><rect x="554" y="80" width="260" height="500"/></clipPath>
  <clipPath id="cp4"><rect x="826" y="80" width="260" height="500"/></clipPath>

</defs>

<!-- Fond -->
<rect width="1100" height="620" fill="#16140e"/>

<!-- Ligne de séparation des panneaux -->
<g stroke="#2a2018" stroke-width="1" opacity="0.6">
  <line x1="277" y1="60" x2="277" y2="605"/>
  <line x1="549" y1="60" x2="549" y2="605"/>
  <line x1="821" y1="60" x2="821" y2="605"/>
</g>

<!-- Titre -->
<text x="550" y="28" text-anchor="middle" font-size="20" font-weight="900"
  fill="#F59B3A" filter="url(#glow)" letter-spacing="3">CPTU1 SETRAF ANALYSE</text>
<text x="550" y="46" text-anchor="middle" font-size="10"
  fill="#a07840" letter-spacing="2">ANALYSE GÉOTECHNIQUE — DONNÉES RÉELLES</text>
<rect x="80" y="52" width="940" height="1.5" rx="1" fill="#DA701C" opacity="0.5"/>

<!-- Titres panneaux -->
<text x="140" y="72" text-anchor="middle" font-size="11" font-weight="bold" fill="#F59B3A">Sol (Robertson)</text>
<text x="412" y="72" text-anchor="middle" font-size="11" font-weight="bold" fill="#F59B3A">qc (MPa)</text>
<text x="684" y="72" text-anchor="middle" font-size="11" font-weight="bold" fill="#4ab8d8">fs (kPa)</text>
<text x="956" y="72" text-anchor="middle" font-size="11" font-weight="bold" fill="#aaccaa">Ic Robertson</text>


<!-- Axe profondeur -->
<line x1="10" y1="80" x2="1086" y2="80" stroke="#2a2018" stroke-width="0.5" opacity="0.4"/>
<text x="6" y="84" text-anchor="end" font-size="9" fill="#a07840">0.0m</text>
<line x1="10" y1="130" x2="1086" y2="130" stroke="#2a2018" stroke-width="0.5" opacity="0.4"/>
<text x="6" y="134" text-anchor="end" font-size="9" fill="#a07840">2.0m</text>
<line x1="10" y1="180" x2="1086" y2="180" stroke="#2a2018" stroke-width="0.5" opacity="0.4"/>
<text x="6" y="184" text-anchor="end" font-size="9" fill="#a07840">4.0m</text>
<line x1="10" y1="230" x2="1086" y2="230" stroke="#2a2018" stroke-width="0.5" opacity="0.4"/>
<text x="6" y="234" text-anchor="end" font-size="9" fill="#a07840">6.0m</text>
<line x1="10" y1="280" x2="1086" y2="280" stroke="#2a2018" stroke-width="0.5" opacity="0.4"/>
<text x="6" y="284" text-anchor="end" font-size="9" fill="#a07840">8.0m</text>
<line x1="10" y1="330" x2="1086" y2="330" stroke="#2a2018" stroke-width="0.5" opacity="0.4"/>
<text x="6" y="334" text-anchor="end" font-size="9" fill="#a07840">10.0m</text>
<line x1="10" y1="380" x2="1086" y2="380" stroke="#2a2018" stroke-width="0.5" opacity="0.4"/>
<text x="6" y="384" text-anchor="end" font-size="9" fill="#a07840">12.0m</text>
<line x1="10" y1="430" x2="1086" y2="430" stroke="#2a2018" stroke-width="0.5" opacity="0.4"/>
<text x="6" y="434" text-anchor="end" font-size="9" fill="#a07840">14.0m</text>
<line x1="10" y1="480" x2="1086" y2="480" stroke="#2a2018" stroke-width="0.5" opacity="0.4"/>
<text x="6" y="484" text-anchor="end" font-size="9" fill="#a07840">16.0m</text>
<line x1="10" y1="530" x2="1086" y2="530" stroke="#2a2018" stroke-width="0.5" opacity="0.4"/>
<text x="6" y="534" text-anchor="end" font-size="9" fill="#a07840">18.0m</text>
<line x1="10" y1="580" x2="1086" y2="580" stroke="#2a2018" stroke-width="0.5" opacity="0.4"/>
<text x="6" y="584" text-anchor="end" font-size="9" fill="#a07840">20.0m</text>


<!-- === PANNEAU 1 : Colonnes sol === -->
<rect x="10" y="80" width="260" height="500"
  fill="#1a1208" rx="2"/>
<rect x="10" y="80.0" width="260" height="2" fill="#3CB371" opacity="0"><animate attributeName="opacity" from="0" to="0.85" dur="0.5s" begin="0.0s" fill="freeze"/></rect>
<line x1="10" y1="80.0" x2="270" y2="80.0" stroke="#16140e" stroke-width="1.5" opacity="0.6"/>
<rect x="10" y="92.5" width="260" height="62.5" fill="#556B2F" opacity="0"><animate attributeName="opacity" from="0" to="0.85" dur="0.5s" begin="0.3s" fill="freeze"/></rect>
<line x1="10" y1="155.0" x2="270" y2="155.0" stroke="#16140e" stroke-width="1.5" opacity="0.6"/>
<text x="14" y="127.75" font-size="9" fill="#F0E1C3" font-family="Arial" opacity="0">Silt argileux<animate attributeName="opacity" from="0" to="1" dur="0.4s" begin="0.7s" fill="freeze"/></text>
<text x="14" y="138.75" font-size="8" fill="#a07840" font-family="Arial">qc=4.33 MPa</text>
<rect x="10" y="167.5" width="260" height="2" fill="#6B8E23" opacity="0"><animate attributeName="opacity" from="0" to="0.85" dur="0.5s" begin="0.6s" fill="freeze"/></rect>
<line x1="10" y1="167.5" x2="270" y2="167.5" stroke="#16140e" stroke-width="1.5" opacity="0.6"/>
<rect x="10" y="180.0" width="260" height="125.0" fill="#556B2F" opacity="0"><animate attributeName="opacity" from="0" to="0.85" dur="0.5s" begin="0.9s" fill="freeze"/></rect>
<line x1="10" y1="305.0" x2="270" y2="305.0" stroke="#16140e" stroke-width="1.5" opacity="0.6"/>
<text x="14" y="246.5" font-size="9" fill="#F0E1C3" font-family="Arial" opacity="0">Silt argileux<animate attributeName="opacity" from="0" to="1" dur="0.4s" begin="1.3s" fill="freeze"/></text>
<text x="14" y="257.5" font-size="8" fill="#a07840" font-family="Arial">qc=3.73 MPa</text>
<rect x="10" y="317.5" width="260" height="2" fill="#6B8E23" opacity="0"><animate attributeName="opacity" from="0" to="0.85" dur="0.5s" begin="1.2s" fill="freeze"/></rect>
<line x1="10" y1="317.5" x2="270" y2="317.5" stroke="#16140e" stroke-width="1.5" opacity="0.6"/>
<rect x="10" y="330.0" width="260" height="2" fill="#556B2F" opacity="0"><animate attributeName="opacity" from="0" to="0.85" dur="0.5s" begin="1.5s" fill="freeze"/></rect>
<line x1="10" y1="330.0" x2="270" y2="330.0" stroke="#16140e" stroke-width="1.5" opacity="0.6"/>
<rect x="10" y="342.5" width="260" height="37.5" fill="#6B8E23" opacity="0"><animate attributeName="opacity" from="0" to="0.85" dur="0.5s" begin="1.8s" fill="freeze"/></rect>
<line x1="10" y1="380.0" x2="270" y2="380.0" stroke="#16140e" stroke-width="1.5" opacity="0.6"/>
<text x="14" y="365.25" font-size="9" fill="#F0E1C3" font-family="Arial" opacity="0">Silt sableux<animate attributeName="opacity" from="0" to="1" dur="0.4s" begin="2.2s" fill="freeze"/></text>
<text x="14" y="376.25" font-size="8" fill="#a07840" font-family="Arial">qc=8.38 MPa</text>
<rect x="10" y="392.5" width="260" height="12.5" fill="#556B2F" opacity="0"><animate attributeName="opacity" from="0" to="0.85" dur="0.5s" begin="2.1s" fill="freeze"/></rect>
<line x1="10" y1="405.0" x2="270" y2="405.0" stroke="#16140e" stroke-width="1.5" opacity="0.6"/>
<rect x="10" y="417.5" width="260" height="50.0" fill="#6B8E23" opacity="0"><animate attributeName="opacity" from="0" to="0.85" dur="0.5s" begin="2.4s" fill="freeze"/></rect>
<line x1="10" y1="467.5" x2="270" y2="467.5" stroke="#16140e" stroke-width="1.5" opacity="0.6"/>
<text x="14" y="446.5" font-size="9" fill="#F0E1C3" font-family="Arial" opacity="0">Silt sableux<animate attributeName="opacity" from="0" to="1" dur="0.4s" begin="2.8s" fill="freeze"/></text>
<text x="14" y="457.5" font-size="8" fill="#a07840" font-family="Arial">qc=9.6 MPa</text>
<rect x="10" y="480.0" width="260" height="2" fill="#556B2F" opacity="0"><animate attributeName="opacity" from="0" to="0.85" dur="0.5s" begin="2.7s" fill="freeze"/></rect>
<line x1="10" y1="480.0" x2="270" y2="480.0" stroke="#16140e" stroke-width="1.5" opacity="0.6"/>
<rect x="10" y="492.5" width="260" height="2" fill="#6B8E23" opacity="0"><animate attributeName="opacity" from="0" to="0.85" dur="0.5s" begin="3.0s" fill="freeze"/></rect>
<line x1="10" y1="492.5" x2="270" y2="492.5" stroke="#16140e" stroke-width="1.5" opacity="0.6"/>
<rect x="10" y="505.0" width="260" height="2" fill="#556B2F" opacity="0"><animate attributeName="opacity" from="0" to="0.85" dur="0.5s" begin="3.3s" fill="freeze"/></rect>
<line x1="10" y1="505.0" x2="270" y2="505.0" stroke="#16140e" stroke-width="1.5" opacity="0.6"/>
<rect x="10" y="517.5" width="260" height="37.5" fill="#6B8E23" opacity="0"><animate attributeName="opacity" from="0" to="0.85" dur="0.5s" begin="3.6s" fill="freeze"/></rect>
<line x1="10" y1="555.0" x2="270" y2="555.0" stroke="#16140e" stroke-width="1.5" opacity="0.6"/>
<text x="14" y="540.25" font-size="9" fill="#F0E1C3" font-family="Arial" opacity="0">Silt sableux<animate attributeName="opacity" from="0" to="1" dur="0.4s" begin="4.0s" fill="freeze"/></text>
<text x="14" y="551.25" font-size="8" fill="#a07840" font-family="Arial">qc=6.88 MPa</text>
<rect x="10" y="567.5" width="260" height="2" fill="#556B2F" opacity="0"><animate attributeName="opacity" from="0" to="0.85" dur="0.5s" begin="3.9s" fill="freeze"/></rect>
<line x1="10" y1="567.5" x2="270" y2="567.5" stroke="#16140e" stroke-width="1.5" opacity="0.6"/>
<rect x="10" y="580.0" width="260" height="2" fill="#6B8E23" opacity="0"><animate attributeName="opacity" from="0" to="0.85" dur="0.5s" begin="4.2s" fill="freeze"/></rect>
<line x1="10" y1="580.0" x2="270" y2="580.0" stroke="#16140e" stroke-width="1.5" opacity="0.6"/>


<!-- === PANNEAU 2 : qc profile === -->
<rect x="282" y="80" width="260" height="500"
  fill="#1a1208" rx="2"/>
<line x1="334" y1="80" x2="334" y2="580" stroke="#2a2018" stroke-width="0.7"/>
<text x="334" y="592" text-anchor="middle" font-size="8" fill="#a07840">2.8</text>
<line x1="386" y1="80" x2="386" y2="580" stroke="#2a2018" stroke-width="0.7"/>
<text x="386" y="592" text-anchor="middle" font-size="8" fill="#a07840">5.6</text>
<line x1="438" y1="80" x2="438" y2="580" stroke="#2a2018" stroke-width="0.7"/>
<text x="438" y="592" text-anchor="middle" font-size="8" fill="#a07840">8.4</text>
<line x1="490" y1="80" x2="490" y2="580" stroke="#2a2018" stroke-width="0.7"/>
<text x="490" y="592" text-anchor="middle" font-size="8" fill="#a07840">11.2</text>
<line x1="542" y1="80" x2="542" y2="580" stroke="#2a2018" stroke-width="0.7"/>
<text x="542" y="592" text-anchor="middle" font-size="8" fill="#a07840">14.0</text>

<polygon points="282,580 282,80.0 337,92.5 356,105.0 365,117.5 365,130.0 365,142.5 384,155.0 412,167.5 393,180.0 374,192.5 347,205.0 328,217.5 328,230.0 319,242.5 328,255.0 337,267.5 337,280.0 374,292.5 393,305.0 412,317.5 374,330.0 412,342.5 449,355.0 458,367.5 430,380.0 393,392.5 374,405.0 467,417.5 542,430.0 430,442.5 430,455.0 430,467.5 393,480.0 412,492.5 374,505.0 412,517.5 412,530.0 412,542.5 402,555.0 374,567.5 430,580.0 430,580" fill="#C1550F" opacity="0.15"/>

<polyline clip-path="url(#cp2)" points="282,80.0 337,92.5 356,105.0 365,117.5 365,130.0 365,142.5 384,155.0 412,167.5 393,180.0 374,192.5 347,205.0 328,217.5 328,230.0 319,242.5 328,255.0 337,267.5 337,280.0 374,292.5 393,305.0 412,317.5 374,330.0 412,342.5 449,355.0 458,367.5 430,380.0 393,392.5 374,405.0 467,417.5 542,430.0 430,442.5 430,455.0 430,467.5 393,480.0 412,492.5 374,505.0 412,517.5 412,530.0 412,542.5 402,555.0 374,567.5 430,580.0" fill="none" stroke="#F59B3A" stroke-width="2" stroke-dasharray="1282 1282" stroke-dashoffset="1282">
  <animate attributeName="stroke-dashoffset" from="1282" to="0" dur="6s" begin="0.2s" fill="freeze" calcMode="linear"/>
</polyline>


<!-- === PANNEAU 3 : fs profile === -->
<rect x="554" y="80" width="260" height="500"
  fill="#1a1208" rx="2"/>
<line x1="606" y1="80" x2="606" y2="580" stroke="#2a2018" stroke-width="0.7"/>
<text x="606" y="592" text-anchor="middle" font-size="8" fill="#a07840">28</text>
<line x1="658" y1="80" x2="658" y2="580" stroke="#2a2018" stroke-width="0.7"/>
<text x="658" y="592" text-anchor="middle" font-size="8" fill="#a07840">56</text>
<line x1="710" y1="80" x2="710" y2="580" stroke="#2a2018" stroke-width="0.7"/>
<text x="710" y="592" text-anchor="middle" font-size="8" fill="#a07840">84</text>
<line x1="762" y1="80" x2="762" y2="580" stroke="#2a2018" stroke-width="0.7"/>
<text x="762" y="592" text-anchor="middle" font-size="8" fill="#a07840">112</text>
<line x1="814" y1="80" x2="814" y2="580" stroke="#2a2018" stroke-width="0.7"/>
<text x="814" y="592" text-anchor="middle" font-size="8" fill="#a07840">140</text>

<polygon points="554,580 554,80.0 609,92.5 628,105.0 637,117.5 637,130.0 637,142.5 656,155.0 684,167.5 665,180.0 646,192.5 619,205.0 600,217.5 600,230.0 591,242.5 600,255.0 609,267.5 609,280.0 646,292.5 665,305.0 684,317.5 646,330.0 684,342.5 721,355.0 730,367.5 702,380.0 665,392.5 646,405.0 739,417.5 814,430.0 702,442.5 702,455.0 702,467.5 665,480.0 684,492.5 646,505.0 684,517.5 684,530.0 684,542.5 674,555.0 646,567.5 702,580.0 702,580" fill="#4ab8d8" opacity="0.12"/>

<polyline clip-path="url(#cp3)" points="554,80.0 609,92.5 628,105.0 637,117.5 637,130.0 637,142.5 656,155.0 684,167.5 665,180.0 646,192.5 619,205.0 600,217.5 600,230.0 591,242.5 600,255.0 609,267.5 609,280.0 646,292.5 665,305.0 684,317.5 646,330.0 684,342.5 721,355.0 730,367.5 702,380.0 665,392.5 646,405.0 739,417.5 814,430.0 702,442.5 702,455.0 702,467.5 665,480.0 684,492.5 646,505.0 684,517.5 684,530.0 684,542.5 674,555.0 646,567.5 702,580.0" fill="none" stroke="#4ab8d8" stroke-width="2" stroke-dasharray="1282 1282" stroke-dashoffset="1282">
  <animate attributeName="stroke-dashoffset" from="1282" to="0" dur="6s" begin="0.8s" fill="freeze" calcMode="linear"/>
</polyline>


<!-- === PANNEAU 4 : Robertson Ic === -->
<rect x="826" y="80" width="260" height="500"
  fill="#1a1208" rx="2"/>
<rect x="826" y="80.0" width="260" height="12.2" fill="#3CB371" opacity="0"><animate attributeName="opacity" from="0" to="0.8" dur="0.05s" begin="1.200s" fill="freeze"/></rect>
<rect x="826" y="92.5" width="168" height="12.2" fill="#556B2F" opacity="0"><animate attributeName="opacity" from="0" to="0.8" dur="0.05s" begin="1.310s" fill="freeze"/></rect>
<rect x="826" y="105.0" width="162" height="12.2" fill="#556B2F" opacity="0"><animate attributeName="opacity" from="0" to="0.8" dur="0.05s" begin="1.420s" fill="freeze"/></rect>
<rect x="826" y="117.5" width="159" height="12.2" fill="#556B2F" opacity="0"><animate attributeName="opacity" from="0" to="0.8" dur="0.05s" begin="1.529s" fill="freeze"/></rect>
<rect x="826" y="130.0" width="159" height="12.2" fill="#556B2F" opacity="0"><animate attributeName="opacity" from="0" to="0.8" dur="0.05s" begin="1.639s" fill="freeze"/></rect>
<rect x="826" y="142.5" width="159" height="12.2" fill="#556B2F" opacity="0"><animate attributeName="opacity" from="0" to="0.8" dur="0.05s" begin="1.749s" fill="freeze"/></rect>
<rect x="826" y="155.0" width="155" height="12.2" fill="#556B2F" opacity="0"><animate attributeName="opacity" from="0" to="0.8" dur="0.05s" begin="1.859s" fill="freeze"/></rect>
<rect x="826" y="167.5" width="150" height="12.2" fill="#6B8E23" opacity="0"><animate attributeName="opacity" from="0" to="0.8" dur="0.05s" begin="1.968s" fill="freeze"/></rect>
<rect x="826" y="180.0" width="153" height="12.2" fill="#556B2F" opacity="0"><animate attributeName="opacity" from="0" to="0.8" dur="0.05s" begin="2.078s" fill="freeze"/></rect>
<rect x="826" y="192.5" width="157" height="12.2" fill="#556B2F" opacity="0"><animate attributeName="opacity" from="0" to="0.8" dur="0.05s" begin="2.188s" fill="freeze"/></rect>
<rect x="826" y="205.0" width="164" height="12.2" fill="#556B2F" opacity="0"><animate attributeName="opacity" from="0" to="0.8" dur="0.05s" begin="2.298s" fill="freeze"/></rect>
<rect x="826" y="217.5" width="171" height="12.2" fill="#556B2F" opacity="0"><animate attributeName="opacity" from="0" to="0.8" dur="0.05s" begin="2.407s" fill="freeze"/></rect>
<rect x="826" y="230.0" width="171" height="12.2" fill="#556B2F" opacity="0"><animate attributeName="opacity" from="0" to="0.8" dur="0.05s" begin="2.517s" fill="freeze"/></rect>
<rect x="826" y="242.5" width="176" height="12.2" fill="#556B2F" opacity="0"><animate attributeName="opacity" from="0" to="0.8" dur="0.05s" begin="2.627s" fill="freeze"/></rect>
<rect x="826" y="255.0" width="171" height="12.2" fill="#556B2F" opacity="0"><animate attributeName="opacity" from="0" to="0.8" dur="0.05s" begin="2.737s" fill="freeze"/></rect>
<rect x="826" y="267.5" width="168" height="12.2" fill="#556B2F" opacity="0"><animate attributeName="opacity" from="0" to="0.8" dur="0.05s" begin="2.846s" fill="freeze"/></rect>
<rect x="826" y="280.0" width="168" height="12.2" fill="#556B2F" opacity="0"><animate attributeName="opacity" from="0" to="0.8" dur="0.05s" begin="2.956s" fill="freeze"/></rect>
<rect x="826" y="292.5" width="157" height="12.2" fill="#556B2F" opacity="0"><animate attributeName="opacity" from="0" to="0.8" dur="0.05s" begin="3.066s" fill="freeze"/></rect>
<rect x="826" y="305.0" width="153" height="12.2" fill="#556B2F" opacity="0"><animate attributeName="opacity" from="0" to="0.8" dur="0.05s" begin="3.176s" fill="freeze"/></rect>
<rect x="826" y="317.5" width="150" height="12.2" fill="#6B8E23" opacity="0"><animate attributeName="opacity" from="0" to="0.8" dur="0.05s" begin="3.285s" fill="freeze"/></rect>
<rect x="826" y="330.0" width="157" height="12.2" fill="#556B2F" opacity="0"><animate attributeName="opacity" from="0" to="0.8" dur="0.05s" begin="3.395s" fill="freeze"/></rect>
<rect x="826" y="342.5" width="150" height="12.2" fill="#6B8E23" opacity="0"><animate attributeName="opacity" from="0" to="0.8" dur="0.05s" begin="3.505s" fill="freeze"/></rect>
<rect x="826" y="355.0" width="145" height="12.2" fill="#6B8E23" opacity="0"><animate attributeName="opacity" from="0" to="0.8" dur="0.05s" begin="3.615s" fill="freeze"/></rect>
<rect x="826" y="367.5" width="144" height="12.2" fill="#6B8E23" opacity="0"><animate attributeName="opacity" from="0" to="0.8" dur="0.05s" begin="3.724s" fill="freeze"/></rect>
<rect x="826" y="380.0" width="147" height="12.2" fill="#6B8E23" opacity="0"><animate attributeName="opacity" from="0" to="0.8" dur="0.05s" begin="3.834s" fill="freeze"/></rect>
<rect x="826" y="392.5" width="153" height="12.2" fill="#556B2F" opacity="0"><animate attributeName="opacity" from="0" to="0.8" dur="0.05s" begin="3.944s" fill="freeze"/></rect>
<rect x="826" y="405.0" width="157" height="12.2" fill="#556B2F" opacity="0"><animate attributeName="opacity" from="0" to="0.8" dur="0.05s" begin="4.054s" fill="freeze"/></rect>
<rect x="826" y="417.5" width="143" height="12.2" fill="#6B8E23" opacity="0"><animate attributeName="opacity" from="0" to="0.8" dur="0.05s" begin="4.163s" fill="freeze"/></rect>
<rect x="826" y="430.0" width="136" height="12.2" fill="#6B8E23" opacity="0"><animate attributeName="opacity" from="0" to="0.8" dur="0.05s" begin="4.273s" fill="freeze"/></rect>
<rect x="826" y="442.5" width="147" height="12.2" fill="#6B8E23" opacity="0"><animate attributeName="opacity" from="0" to="0.8" dur="0.05s" begin="4.383s" fill="freeze"/></rect>
<rect x="826" y="455.0" width="147" height="12.2" fill="#6B8E23" opacity="0"><animate attributeName="opacity" from="0" to="0.8" dur="0.05s" begin="4.493s" fill="freeze"/></rect>
<rect x="826" y="467.5" width="147" height="12.2" fill="#6B8E23" opacity="0"><animate attributeName="opacity" from="0" to="0.8" dur="0.05s" begin="4.602s" fill="freeze"/></rect>
<rect x="826" y="480.0" width="153" height="12.2" fill="#556B2F" opacity="0"><animate attributeName="opacity" from="0" to="0.8" dur="0.05s" begin="4.712s" fill="freeze"/></rect>
<rect x="826" y="492.5" width="150" height="12.2" fill="#6B8E23" opacity="0"><animate attributeName="opacity" from="0" to="0.8" dur="0.05s" begin="4.822s" fill="freeze"/></rect>
<rect x="826" y="505.0" width="157" height="12.2" fill="#556B2F" opacity="0"><animate attributeName="opacity" from="0" to="0.8" dur="0.05s" begin="4.932s" fill="freeze"/></rect>
<rect x="826" y="517.5" width="150" height="12.2" fill="#6B8E23" opacity="0"><animate attributeName="opacity" from="0" to="0.8" dur="0.05s" begin="5.041s" fill="freeze"/></rect>
<rect x="826" y="530.0" width="150" height="12.2" fill="#6B8E23" opacity="0"><animate attributeName="opacity" from="0" to="0.8" dur="0.05s" begin="5.151s" fill="freeze"/></rect>
<rect x="826" y="542.5" width="150" height="12.2" fill="#6B8E23" opacity="0"><animate attributeName="opacity" from="0" to="0.8" dur="0.05s" begin="5.261s" fill="freeze"/></rect>
<rect x="826" y="555.0" width="152" height="12.2" fill="#6B8E23" opacity="0"><animate attributeName="opacity" from="0" to="0.8" dur="0.05s" begin="5.371s" fill="freeze"/></rect>
<rect x="826" y="567.5" width="157" height="12.2" fill="#556B2F" opacity="0"><animate attributeName="opacity" from="0" to="0.8" dur="0.05s" begin="5.480s" fill="freeze"/></rect>
<rect x="826" y="580.0" width="147" height="12.2" fill="#6B8E23" opacity="0"><animate attributeName="opacity" from="0" to="0.8" dur="0.05s" begin="5.590s" fill="freeze"/></rect>

<line x1="932" y1="80" x2="932" y2="580" stroke="#DAA520" stroke-width="1" stroke-dasharray="4,3" opacity="0.6"/>
<text x="934" y="90" font-size="8" fill="#DAA520">2.05</text>
<line x1="961" y1="80" x2="961" y2="580" stroke="#6B8E23" stroke-width="1" stroke-dasharray="4,3" opacity="0.6"/>
<text x="963" y="90" font-size="8" fill="#6B8E23">2.60</text>
<line x1="1013" y1="80" x2="1013" y2="580" stroke="#3CB371" stroke-width="1" stroke-dasharray="4,3" opacity="0.6"/>
<text x="1015" y="90" font-size="8" fill="#3CB371">3.60</text>


<!-- Sonde CPTU animée -->
<g transform="translate(140,80)" opacity="0"><animate attributeName="opacity" from="0" to="1" dur="0.4s" begin="0s" fill="freeze"/><line x1="0" y1="0" x2="0" y2="-20" stroke="url(#rodgrad)" stroke-width="4"/>
<polygon points="-6,0 6,0 0,12" fill="#C1550F" filter="url(#glow)"/>
<animateTransform attributeName="transform" type="translate" from="140,60" to="140,570" dur="6s" begin="0s" fill="freeze" calcMode="easeIn"/>
</g>


<!-- Légende zones sol -->
<rect x="826" y="600" width="10" height="10" fill="#6B8E23"/>
<text x="839" y="609" font-size="8" fill="#F0E1C3">Silt sableux</text>
<rect x="916" y="600" width="10" height="10" fill="#556B2F"/>
<text x="929" y="609" font-size="8" fill="#F0E1C3">Silt argileux</text>
<rect x="1006" y="600" width="10" height="10" fill="#3CB371"/>
<text x="1019" y="609" font-size="8" fill="#F0E1C3">Argile</text>


<!-- Stats globales (bas gauche) -->
<text x="10" y="612" font-size="8" fill="#a07840">
  qc max=14.0 MPa | fs max=140 kPa | Prof. max=20.0 m | 41 points
</text>
<!-- Tampon -->
<text x="1092" y="612" text-anchor="end" font-size="8" fill="#a07840">
  SETRAF © 2026
</text>
</svg>
